<?xml version="1.0" standalone="no"?>
<!DOCTYPE svg PUBLIC "-//W3C//DTD SVG 20010904//EN"
 "http://www.w3.org/TR/2001/REC-SVG-20010904/DTD/svg10.dtd">
<svg version="1.0" xmlns="http://www.w3.org/2000/svg"
 width="300.000000pt" height="325.000000pt" viewBox="0 0 300.000000 325.000000"
 preserveAspectRatio="xMidYMid meet">
<metadata>
Created by potrace 1.10, written by Peter Selinger 2001-2011
</metadata>
<g transform="translate(0.000000,325.000000) scale(0.100000,-0.100000)"
fill="#000000" stroke="none">
<path d="M1470 3133 c91 -6 168 -26 280 -70 63 -25 119 -50 124 -55 6 -4 16
-8 24 -8 7 0 41 -13 75 -29 98 -46 139 -62 143 -58 10 10 -441 194 -521 213
-33 7 -85 13 -115 12 -51 -1 -52 -2 -10 -5z"/>
<path d="M1360 3118 c-14 -6 -31 -12 -37 -14 -20 -4 -78 -42 -98 -64 -15 -17
-16 -20 -3 -20 9 0 21 7 28 15 7 8 17 15 22 15 6 0 23 9 39 21 16 11 33 18 38
14 5 -3 13 0 17 6 4 8 3 9 -4 5 -7 -4 -12 -3 -12 2 0 6 17 14 38 20 20 5 28
10 17 10 -11 1 -31 -4 -45 -10z"/>
<path d="M1490 3070 c-13 -9 -13 -12 3 -21 9 -5 17 -16 17 -24 0 -9 -7 -12
-17 -9 -10 3 -2 -4 17 -14 31 -18 36 -18 46 -4 10 14 15 14 50 -1 21 -8 38
-19 37 -24 -1 -8 27 -13 82 -13 19 0 25 -3 17 -9 -8 -5 65 -40 205 -98 120
-49 220 -88 223 -85 3 3 -1 7 -8 9 -7 3 -18 10 -25 17 -20 21 -57 37 -67 31
-5 -3 -19 4 -31 16 -15 15 -28 19 -46 14 -16 -4 -22 -2 -18 4 3 7 0 8 -9 5 -9
-3 -16 -1 -16 6 0 6 -4 9 -9 6 -5 -3 -14 1 -21 9 -17 21 -68 45 -72 34 -4 -13
-73 16 -99 42 -13 13 -29 19 -42 15 -12 -2 -33 2 -47 10 l-25 15 25 -6 25 -6
-25 15 c-29 18 -44 20 -35 6 9 -14 -1 -12 -36 5 -16 9 -34 13 -39 10 -5 -3
-16 8 -25 25 -18 34 -15 33 -35 20z"/>
<path d="M1333 3044 c-18 -9 -33 -20 -33 -25 0 -5 -6 -6 -14 -3 -7 3 -26 -6
-41 -20 -34 -31 -35 -31 -28 -6 3 11 0 20 -6 20 -6 0 -11 -5 -11 -11 0 -13
-27 -41 -36 -37 -4 2 -14 -8 -23 -22 -13 -20 -13 -23 -1 -15 9 5 6 -2 -5 -16
-68 -80 -51 -79 32 1 34 33 68 60 75 60 7 0 0 -9 -17 -20 -16 -11 -25 -20 -20
-20 6 0 21 7 34 16 18 13 25 14 34 4 8 -8 8 -11 1 -7 -11 6 -39 -41 -30 -50 2
-2 7 5 11 16 3 12 11 21 16 21 14 0 11 -14 -9 -36 -11 -11 -21 -32 -24 -46 -5
-24 0 -29 46 -49 l51 -22 -32 -11 c-17 -6 -35 -14 -39 -18 -4 -5 -14 -8 -22
-8 -10 0 -13 9 -10 35 3 23 0 35 -8 35 -17 0 -44 -28 -44 -45 0 -7 -7 -21 -16
-29 -8 -9 -12 -16 -7 -16 4 0 1 -5 -7 -10 -13 -8 -13 -10 2 -10 10 0 21 14 29
38 16 50 20 56 29 41 5 -7 0 -29 -11 -52 -21 -39 -20 -55 1 -42 6 4 9 13 6 20
-5 15 31 28 40 14 3 -5 16 -9 30 -9 15 0 23 -4 19 -10 -4 -6 -2 -17 4 -24 13
-16 4 -49 -11 -39 -7 4 -9 -4 -6 -21 3 -14 1 -29 -3 -32 -14 -8 -11 -64 4 -64
6 0 23 -3 37 -5 22 -5 22 -4 5 4 -14 7 -16 10 -5 11 10 1 9 4 -5 10 -15 7 -9
9 26 9 33 1 46 5 46 16 0 9 -5 11 -11 7 -6 -5 -26 -9 -45 -11 -25 -2 -31 0
-25 10 4 8 9 22 9 31 2 19 43 68 57 68 4 0 6 -17 4 -37 l-5 -38 22 45 c11 25
29 51 39 58 10 7 18 19 18 26 0 7 10 18 23 24 14 7 16 11 7 12 -11 0 -8 6 8
18 15 12 21 24 16 35 -5 14 -9 12 -23 -15 -9 -18 -22 -33 -29 -33 -8 0 -20 -9
-28 -20 -8 -11 -20 -20 -27 -20 -7 0 -12 -4 -12 -10 0 -5 -4 -16 -9 -24 -8
-12 -11 -11 -23 4 -12 17 -13 17 -13 -10 0 -28 0 -28 -20 -10 -14 13 -17 21
-9 26 8 4 4 11 -10 19 -18 9 -20 14 -10 26 16 20 27 18 34 -7 6 -17 9 -19 16
-8 5 8 3 17 -4 21 -9 6 -9 10 1 17 8 4 14 12 15 17 1 5 8 8 15 8 6 -1 12 2 12
7 0 5 6 9 13 9 9 0 13 16 13 55 -1 63 -12 72 -22 18 -12 -69 -26 -72 -21 -5 5
67 5 67 -23 52 -11 -6 -21 -6 -24 -1 -3 5 8 11 25 15 37 7 34 30 -5 34 -18 2
-26 8 -24 20 4 22 18 32 48 32 14 0 34 7 44 15 19 14 18 15 -10 15 -16 0 -44
-8 -61 -16z m-36 -65 c-4 -13 0 -19 11 -19 14 0 14 -2 3 -9 -15 -9 -43 8 -34
21 2 4 -3 5 -11 2 -22 -8 -20 13 1 25 23 12 36 4 30 -20z m20 -93 c-18 -26
-11 -42 10 -25 10 9 13 6 14 -12 1 -26 -1 -52 -6 -57 -6 -7 -34 11 -29 19 7
12 -14 39 -29 39 -6 0 -2 -6 9 -14 10 -8 16 -18 12 -22 -10 -9 -38 14 -38 32
0 7 9 16 20 19 11 3 25 15 30 26 6 10 13 19 17 19 3 0 -2 -11 -10 -24z"/>
<path d="M1430 3029 c0 -5 5 -7 10 -4 11 7 13 -6 4 -29 -8 -20 -24 -21 -24 -2
0 16 -19 25 -38 18 -9 -2 0 -13 22 -28 20 -14 36 -29 36 -34 0 -6 10 -8 23 -6
12 3 24 5 26 5 3 1 -4 7 -15 15 -10 8 -16 17 -13 21 8 7 161 -68 198 -96 l24
-19 -29 0 c-16 0 -55 11 -86 24 -64 26 -81 13 -22 -16 24 -12 58 -18 110 -18
49 0 96 -7 135 -20 68 -23 142 -67 135 -79 -3 -4 5 -7 17 -6 11 1 48 -7 82
-17 82 -26 125 -30 125 -11 0 8 -4 12 -9 8 -5 -3 -47 10 -93 28 -46 19 -95 37
-110 41 -16 3 -28 11 -28 16 0 5 -8 6 -17 3 -16 -6 -17 -5 -3 13 14 17 14 18
-2 6 -14 -11 -24 -11 -53 -2 -21 7 -32 16 -29 22 4 6 3 8 -3 5 -5 -3 -45 10
-89 29 -43 20 -114 51 -158 69 -43 19 -85 43 -93 55 -15 21 -33 27 -33 9z"/>
<path d="M1215 2911 c-3 -6 -11 -8 -17 -5 -7 4 -8 2 -4 -4 4 -7 1 -12 -8 -12
-14 0 -46 -36 -46 -52 0 -13 70 34 81 54 11 21 6 37 -6 19z"/>
<path d="M2213 2863 c92 -48 126 -81 152 -149 12 -31 14 -33 9 -9 -14 70 -62
119 -171 174 -97 48 -89 36 10 -16z"/>
<path d="M1085 2818 c-46 -54 -61 -82 -96 -185 -21 -63 -24 -83 -14 -83 15 0
22 16 31 75 3 22 17 63 30 90 14 28 22 41 18 30 -6 -19 -17 -99 -29 -218 -5
-42 -11 -60 -26 -67 -21 -12 -43 -4 -33 11 3 5 9 7 13 5 4 -3 8 11 9 30 4 57
-23 42 -42 -24 -9 -32 -16 -61 -16 -65 0 -14 33 -6 57 13 44 35 85 27 132 -26
22 -25 41 -41 41 -34 0 20 -32 68 -54 79 -19 10 -18 11 7 6 29 -6 33 3 17 40
-7 17 -9 17 -9 3 -1 -12 -9 -18 -27 -18 -17 0 -23 4 -18 13 5 8 2 8 -9 -2 -9
-7 -17 -10 -17 -5 0 5 -5 2 -10 -6 -7 -11 -8 -5 -5 20 3 19 7 49 9 65 3 17 5
53 6 80 1 28 4 42 7 33 9 -34 21 -18 19 23 -2 22 0 35 4 29 4 -7 10 1 14 22 3
18 15 50 26 71 27 49 10 47 -35 -5z"/>
<path d="M1173 2835 c-12 -9 -27 -14 -33 -13 -7 2 -16 -7 -21 -19 -5 -14 -5
-23 1 -23 6 0 10 5 10 10 0 6 6 10 14 10 7 0 19 7 26 15 7 8 16 12 21 9 5 -3
9 2 9 10 0 20 0 20 -27 1z"/>
<path d="M1638 2843 c18 -2 45 -2 60 0 15 2 0 4 -33 4 -33 0 -45 -2 -27 -4z"/>
<path d="M1784 2819 c-4 -7 -1 -10 7 -7 8 3 35 -5 62 -19 26 -13 47 -21 47
-18 0 5 -95 55 -104 55 -3 0 -8 -5 -12 -11z"/>
<path d="M2175 2740 c-3 -5 1 -10 9 -10 9 0 16 -7 16 -16 0 -11 -6 -14 -21 -9
-15 5 -19 4 -15 -4 12 -19 36 -12 46 15 6 14 10 27 10 30 0 9 -39 4 -45 -6z"/>
<path d="M1982 2723 c11 -14 10 -15 -8 -9 -19 6 -18 2 9 -27 22 -25 31 -46 33
-78 1 -24 6 -81 10 -127 6 -69 4 -89 -11 -122 -10 -22 -21 -39 -24 -37 -64 34
-242 117 -261 122 -14 3 7 -10 46 -28 39 -19 74 -40 78 -46 4 -6 25 -20 47
-31 21 -11 39 -25 39 -30 0 -6 -31 7 -69 27 -38 21 -67 42 -64 47 4 5 2 6 -3
3 -5 -3 -64 14 -129 38 -124 44 -305 89 -305 75 0 -5 -25 -10 -55 -12 -52 -3
-55 -2 -55 21 0 22 -3 23 -42 17 -45 -7 -55 -12 -45 -22 3 -3 13 -2 23 4 24
14 53 3 51 -19 -1 -18 -17 -28 -17 -11 0 4 -12 8 -27 8 -16 1 -37 5 -48 9 -17
8 -18 7 -7 -7 7 -8 10 -23 6 -32 -4 -11 -1 -16 10 -16 10 0 13 6 10 15 -7 17
21 21 31 5 3 -5 1 -10 -5 -10 -6 0 -8 -4 -5 -10 9 -15 25 -12 25 6 0 8 5 12
10 9 6 -4 8 -11 5 -16 -4 -5 -1 -9 4 -9 6 0 11 7 11 16 0 8 4 13 9 10 5 -4 12
0 14 6 3 8 6 6 6 -5 1 -10 5 -16 10 -13 5 4 7 -4 3 -16 -5 -21 -6 -21 -13 -2
-7 18 -8 18 -8 0 -1 -12 -6 -16 -16 -13 -8 4 -17 2 -20 -3 -4 -6 1 -10 10 -10
19 0 30 -26 18 -43 -11 -15 -16 -159 -7 -201 6 -27 8 -29 15 -11 11 29 11 47
-2 40 -7 -5 -9 11 -8 47 3 76 17 107 19 43 2 -27 6 -63 10 -80 7 -26 8 -23 9
21 1 35 7 56 19 67 24 22 32 21 33 0 3 -37 18 64 18 120 1 55 2 57 27 57 15 0
79 -11 143 -25 86 -19 146 -41 234 -83 65 -31 122 -61 127 -67 6 -7 2 -17 -10
-27 -12 -11 -20 -13 -22 -6 -7 19 -37 1 -58 -34 -26 -42 -26 -98 0 -131 26
-33 25 -47 -5 -80 -31 -33 -43 -34 -47 -6 -6 43 -30 44 -97 5 -35 -20 -71 -34
-80 -32 -9 3 -23 1 -31 -5 -34 -24 101 0 145 25 51 30 64 33 42 9 -8 -10 -16
-21 -17 -25 -3 -23 -14 -38 -27 -38 -13 0 -13 3 -3 15 14 17 0 21 -17 4 -14
-14 -112 -20 -134 -9 -10 6 -20 5 -26 -1 -22 -22 -167 85 -197 144 -4 6 -13
23 -21 36 l-14 25 -7 -28 c-4 -15 -9 -24 -13 -18 -3 5 -18 11 -33 14 -23 4
-28 2 -28 -14 0 -12 4 -17 12 -12 8 5 9 2 5 -11 -7 -17 -6 -17 18 -1 14 9 25
14 25 10 0 -4 7 -1 16 6 8 8 14 9 13 4 -4 -16 25 -68 51 -92 49 -46 126 -89
179 -102 102 -24 222 2 289 63 12 11 22 15 22 9 0 -7 -21 -26 -47 -42 -86 -52
-101 -68 -97 -103 3 -28 2 -30 -10 -15 -7 10 -16 15 -19 12 -3 -3 -14 -1 -24
5 -16 9 -15 10 10 11 15 0 27 5 27 11 0 5 -4 7 -10 4 -5 -3 -10 0 -10 7 0 10
-2 10 -9 -1 -6 -9 -11 -10 -15 -2 -4 6 -12 11 -17 11 -6 0 -7 -5 -3 -12 7 -11
-68 -7 -126 8 -19 4 -21 3 -10 -5 12 -8 12 -11 -4 -17 -12 -4 -25 1 -39 16
l-22 22 22 -6 c16 -5 21 -3 19 8 -3 20 -16 33 -16 17 0 -9 -7 -11 -22 -7 -13
4 -28 8 -35 10 -7 1 -21 10 -33 21 -14 13 -24 15 -31 8 -7 -7 1 -17 28 -34 21
-12 53 -35 71 -51 31 -26 80 -40 67 -18 -8 13 -4 12 49 -1 l44 -11 -2 -51 c-1
-38 3 -51 12 -49 21 4 62 -33 52 -48 -6 -10 -9 -8 -13 6 -4 16 -5 16 -6 -3 -1
-14 5 -23 14 -23 9 0 12 -6 9 -15 -5 -13 -10 -13 -35 1 -16 8 -34 12 -39 9 -6
-3 -10 -2 -10 4 0 5 -14 13 -32 16 -27 6 -29 9 -13 17 16 10 14 12 -15 24 -18
8 -41 14 -52 14 -13 0 -18 5 -15 13 3 9 -27 26 -94 53 -54 21 -99 44 -99 50 0
6 -8 18 -17 25 -17 13 -17 13 -3 -5 14 -18 13 -19 -7 -14 -16 4 -20 2 -16 -10
5 -13 -1 -14 -35 -9 -28 3 -40 2 -35 -5 3 -6 0 -16 -8 -22 -18 -14 -47 -74
-51 -105 -3 -21 -8 -24 -53 -25 l-50 -1 3 60 c1 33 6 61 11 63 6 2 8 9 5 17
-3 7 3 15 13 18 15 4 14 5 -4 6 -12 0 -23 -4 -25 -10 -5 -15 -48 -2 -48 14 0
8 3 8 12 -1 7 -7 17 -12 22 -12 6 0 3 7 -8 15 -16 12 -16 16 -4 34 8 12 18 18
22 14 4 -4 4 0 0 10 -3 10 -1 17 5 17 6 0 10 3 9 8 0 4 1 14 5 22 22 59 6 84
-34 49 -12 -10 -25 -19 -28 -19 -4 0 -7 -14 -6 -30 0 -25 2 -28 11 -15 9 12
13 13 16 3 3 -7 8 4 12 25 7 36 26 52 26 22 0 -20 -32 -85 -42 -85 -4 0 -8 -6
-8 -13 0 -16 -34 -50 -42 -42 -3 3 -10 -1 -17 -9 -9 -11 -7 -15 9 -19 11 -3
18 -1 14 4 -7 12 -2 11 32 -3 19 -9 29 -20 28 -33 -1 -11 -2 -32 -3 -47 -1
-16 -5 -28 -10 -28 -4 0 -6 12 -4 28 4 21 2 24 -6 12 -6 -8 -11 -23 -11 -32 0
-9 -7 -24 -16 -33 -24 -23 -8 -32 17 -9 l22 19 -17 -27 c-11 -16 -15 -35 -11
-48 9 -27 25 -16 17 13 -5 19 -3 20 10 10 8 -7 18 -10 21 -6 4 3 -1 13 -11 21
-15 13 -14 13 6 1 21 -13 31 -30 16 -28 -8 1 -24 -23 -24 -36 0 -5 5 -3 11 5
8 11 9 7 5 -20 -3 -19 -8 -46 -12 -60 -4 -16 -3 -21 3 -15 10 11 36 88 39 117
0 9 4 24 8 33 5 15 9 16 29 3 48 -31 54 -29 70 20 9 26 18 64 22 84 7 36 29
56 40 38 8 -12 42 -13 47 -1 2 4 49 -10 105 -32 l101 -40 -21 -43 c-23 -48
-34 -53 -17 -9 9 23 8 26 -6 21 -8 -3 -21 -6 -27 -6 -7 0 -4 -5 5 -11 14 -7
15 -15 8 -34 -5 -14 -7 -32 -4 -40 4 -8 1 -15 -6 -15 -9 0 -8 -6 4 -19 22 -25
211 -95 232 -87 16 6 16 5 0 -16 -9 -13 -19 -31 -23 -40 -7 -24 -20 -23 -33 2
-8 14 -8 20 0 20 6 0 8 5 5 10 -11 18 -53 11 -82 -14 -43 -36 -84 -41 -134
-16 -36 19 -43 20 -50 7 -8 -13 -19 -11 -78 13 -39 16 -79 34 -90 40 -17 9
-21 8 -21 -5 0 -17 -18 -52 -38 -73 -11 -13 -17 -11 -43 14 -16 15 -29 33 -29
40 0 7 -12 22 -26 33 -16 13 -24 27 -20 36 8 21 -4 19 -30 -6 -19 -18 -25 -19
-43 -7 -13 8 -20 20 -17 31 2 9 0 15 -4 12 -5 -3 -11 1 -13 7 -3 7 -6 0 -6
-15 -1 -16 -6 -38 -12 -49 -9 -16 -7 -26 8 -47 16 -23 17 -30 6 -61 -19 -54
-16 -68 18 -85 37 -20 33 -30 -6 -15 -15 6 -30 8 -33 5 -9 -8 67 -68 113 -88
22 -10 50 -28 62 -39 13 -12 26 -18 30 -13 5 4 2 10 -5 12 -7 3 -21 13 -30 22
-20 19 -58 39 -87 43 -21 3 -34 38 -14 38 6 0 17 7 23 15 10 14 24 9 108 -35
80 -42 97 -48 102 -34 9 25 8 27 -20 20 -19 -5 -25 -3 -22 6 6 17 -64 49 -74
34 -5 -7 -8 -4 -8 7 0 9 -5 17 -11 17 -5 0 -7 -6 -3 -12 4 -7 -5 -2 -19 11
-14 13 -32 21 -39 19 -8 -4 -14 3 -14 18 -1 13 2 24 7 24 15 0 10 15 -11 40
-25 29 -25 32 0 61 l19 24 52 -57 c42 -49 55 -57 75 -52 15 4 24 2 24 -6 0 -6
4 -9 9 -6 5 3 26 -1 46 -10 20 -8 39 -13 42 -10 5 5 -62 36 -78 36 -14 0 -11
8 11 30 25 25 33 25 101 1 30 -10 92 -22 136 -26 l81 -7 37 -54 c34 -50 36
-56 25 -83 -7 -17 -9 -43 -5 -60 7 -35 -4 -39 -63 -22 -19 6 -43 6 -55 2 -20
-8 -18 -10 15 -16 21 -4 36 -11 33 -15 -3 -5 4 -6 15 -3 11 3 20 0 20 -6 0 -6
5 -11 11 -11 6 0 8 7 5 16 -4 11 -1 14 10 12 10 -2 23 -23 32 -50 14 -44 18
-48 69 -64 29 -9 56 -14 60 -10 9 8 -27 35 -48 36 -9 0 -28 9 -43 21 -28 22
-33 50 -16 94 9 24 8 26 -10 20 -16 -5 -20 -2 -20 15 0 23 24 53 33 43 3 -3
-1 -12 -9 -20 -8 -9 -12 -18 -8 -22 4 -3 9 0 11 7 3 6 8 12 13 12 8 0 4 -79
-5 -88 -8 -8 26 -42 41 -42 19 0 84 -32 84 -41 0 -4 12 -1 28 7 15 7 36 14 47
14 26 0 45 18 38 36 -5 15 -29 19 -36 7 -2 -5 -2 -3 -1 4 2 7 -9 22 -23 33
-21 16 -28 18 -35 8 -6 -10 -8 -10 -8 0 0 6 -8 20 -18 30 -25 25 -18 92 9 92
10 0 23 9 29 20 8 15 6 23 -10 38 -20 19 -20 19 6 31 24 10 26 10 20 -6 -6
-16 -5 -16 7 -3 7 8 18 26 24 40 10 23 8 26 -12 28 -48 4 -75 21 -75 47 0 27
26 35 47 14 7 -7 26 -9 51 -4 35 6 39 9 34 31 -2 14 -16 33 -31 42 -14 9 -28
17 -31 19 -2 2 -7 25 -11 51 l-8 47 2 -46 c2 -34 -1 -45 -10 -42 -7 3 -13 0
-13 -7 0 -6 -4 -9 -9 -6 -5 3 -18 -17 -30 -44 -12 -28 -27 -50 -34 -50 -7 0
-48 14 -92 31 -44 17 -88 33 -97 36 -23 7 -23 19 3 82 23 53 37 62 63 35 9 -8
20 -12 26 -9 5 3 10 2 10 -4 0 -6 7 -7 17 -4 10 4 14 2 10 -4 -5 -7 1 -9 15
-5 15 3 19 2 14 -7 -4 -6 -4 -11 1 -10 4 1 11 0 16 -1 4 -1 10 -3 15 -5 4 -1
20 -7 36 -14 35 -14 46 -3 46 48 0 23 8 41 25 57 l25 23 -6 -54 c-7 -54 -6
-55 32 -90 21 -19 40 -35 43 -35 3 0 -22 33 -39 50 -9 9 -12 33 -13 91 0 44 5
63 21 84 23 29 28 45 14 45 -5 0 -14 -12 -20 -26 -16 -34 -32 -22 -32 24 0 34
6 41 67 85 65 46 90 55 62 21 -13 -16 -12 -16 9 -3 12 8 23 17 23 21 3 20 5
24 12 36 5 7 14 12 20 11 7 -1 21 -1 32 0 17 1 15 4 -9 16 -16 9 -30 14 -31
13 -1 -2 -8 -14 -15 -27 -8 -16 -15 -20 -22 -13 -7 7 -2 19 16 39 29 31 56 83
56 106 0 8 7 18 16 21 8 3 12 2 9 -4 -3 -6 5 -10 18 -10 31 0 51 -23 42 -50
-7 -21 4 -27 21 -10 18 18 72 -9 95 -46 31 -50 34 -35 6 24 -17 36 -21 54 -14
61 6 6 8 11 3 11 -4 0 4 10 18 23 21 19 25 32 29 94 2 40 6 76 10 79 14 14 6
44 -14 54 -23 13 -22 13 -37 -16 -12 -22 -5 -38 18 -47 11 -4 10 -6 -5 -7 -18
-2 -18 -3 2 -8 16 -5 20 -11 14 -21 -5 -8 -16 -11 -30 -6 -12 3 -19 11 -16 16
4 5 2 9 -4 9 -5 0 -13 -4 -16 -10 -3 -5 -1 -10 4 -10 6 0 11 -7 11 -16 0 -8 5
-12 10 -9 6 3 18 -2 28 -11 16 -17 16 -17 -5 -12 -13 3 -23 2 -23 -4 0 -5 -4
-6 -10 -3 -5 3 -18 1 -27 -4 -16 -9 -15 -11 7 -11 44 0 60 -3 60 -12 0 -4 -5
-8 -11 -8 -5 0 -7 -6 -3 -12 6 -10 4 -10 -8 0 -8 7 -24 9 -33 5 -13 -4 -16 -3
-11 5 4 7 1 12 -8 12 -9 0 -13 -6 -10 -13 3 -8 -2 -14 -11 -14 -19 0 -20 31 0
47 21 17 19 34 -2 26 -16 -5 -16 -5 -2 6 20 16 61 108 49 108 -13 0 -30 -34
-30 -59 0 -11 -4 -22 -9 -25 -4 -3 -7 5 -6 17 1 12 3 33 4 45 1 15 9 26 21 29
23 6 27 43 5 43 -24 0 -17 14 16 34 17 10 52 20 78 21 25 2 52 4 60 4 8 1 12
4 8 7 -3 4 0 13 8 21 27 26 15 33 -23 13 -21 -11 -51 -21 -67 -22 -17 -2 -38
-11 -48 -21 -17 -17 -21 -17 -34 -4 -12 11 -14 27 -8 66 8 61 20 71 49 41 17
-19 18 -22 4 -17 -10 4 -18 2 -18 -3 0 -5 8 -10 17 -12 13 -2 22 9 35 47 10
27 17 55 18 61 0 15 -73 49 -78 35 -2 -6 -10 -18 -18 -25 -8 -8 -14 -34 -14
-60 0 -25 -4 -46 -9 -46 -20 0 -20 20 -2 79 19 62 18 71 -7 71 -12 0 -12 -3
-2 -15 6 -8 9 -19 5 -26 -5 -7 -15 -2 -30 17 -23 28 -23 29 -3 34 17 4 15 7
-12 17 -28 11 -30 10 -18 -4z m163 -110 c-6 -34 -8 -36 -39 -22 -26 12 -31 25
-20 52 4 12 11 13 35 5 24 -8 28 -14 24 -35z m-820 -185 l-5 -33 14 30 c19 37
20 22 4 -45 -9 -39 -14 -48 -19 -34 -6 14 -8 11 -8 -13 -1 -46 -18 -41 -26 8
-5 30 -3 45 9 58 9 10 16 24 16 33 0 13 9 28 16 28 2 0 1 -15 -1 -32z m671
-123 c23 -10 33 -19 28 -27 -4 -7 -8 -38 -9 -70 -1 -47 1 -58 12 -54 8 3 11 1
8 -4 -3 -6 1 -10 9 -10 9 0 16 7 16 15 0 8 7 15 15 15 19 0 19 -14 0 -30 -8
-7 -12 -16 -9 -21 9 -15 -13 -10 -26 6 -7 8 -21 15 -31 15 -11 0 -19 6 -19 14
0 8 -3 22 -7 32 -4 11 -3 15 4 11 6 -4 13 2 16 13 3 11 1 20 -3 20 -4 0 -6 9
-3 20 3 12 -4 28 -22 45 -32 29 -28 31 21 10z m-56 -85 c-7 -16 -16 -27 -21
-24 -5 3 -2 19 7 35 20 39 31 30 14 -11z m-57 -41 c5 -18 2 -31 -8 -39 -8 -7
-15 -18 -15 -24 0 -6 7 -2 15 8 15 19 15 19 15 -5 0 -20 -5 -24 -34 -25 -33
-1 -33 -1 -20 25 8 14 14 35 13 46 0 20 0 20 -9 0 -8 -20 -9 -20 -9 1 -1 11 2
24 7 28 7 7 8 12 11 38 2 17 27 -22 34 -53z m-206 -381 c21 -10 21 -13 7 -39
-16 -33 -18 -33 -46 -18 -15 8 -27 8 -44 0 -22 -10 -23 -9 -14 15 26 68 35 72
97 42z m-833 -310 c3 -12 2 -28 -2 -35 -6 -10 -13 -8 -29 10 -14 17 -18 29
-11 40 11 21 34 12 42 -15z m644 -47 c12 -7 25 -91 15 -91 -2 0 -11 7 -19 15
-9 8 -12 15 -8 15 3 0 1 7 -6 15 -21 25 -35 1 -16 -26 9 -13 16 -30 16 -39 0
-8 -12 3 -27 25 -17 25 -22 40 -15 43 7 2 10 7 7 12 -5 9 21 40 33 40 4 0 13
-4 20 -9z m127 -1 c4 -6 12 -7 18 -4 7 4 9 4 5 -1 -4 -4 0 -14 10 -21 23 -18
0 -18 -44 1 -20 8 -33 19 -29 25 8 13 32 13 40 0z m-751 -48 c8 -13 -5 -52
-16 -52 -6 0 -8 7 -4 15 3 8 1 15 -3 15 -5 0 -11 -6 -14 -12 -2 -7 -7 -10 -11
-6 -11 9 12 48 29 48 7 0 16 -4 19 -8z m686 -31 c-15 -28 -33 -27 -24 2 7 24
27 41 32 27 2 -5 -2 -18 -8 -29z m-44 -40 c-7 -11 22 -23 36 -14 6 3 8 2 5 -4
-4 -6 4 -15 18 -21 34 -16 23 -54 -14 -50 -20 2 -26 8 -25 26 0 12 -4 22 -9
22 -10 0 -36 30 -37 43 0 4 7 7 16 7 8 0 13 -4 10 -9z m51 -155 c-4 -9 -11
-16 -17 -16 -11 0 -14 33 -3 44 11 10 26 -11 20 -28z m46 2 c-14 -18 -24 -50
-15 -44 5 3 16 -4 25 -14 11 -13 13 -21 5 -26 -6 -4 -15 1 -20 10 -5 9 -13 14
-19 11 -5 -4 -9 10 -9 29 0 24 5 36 18 39 9 3 19 5 21 6 2 0 -1 -5 -6 -11z
m55 -30 c19 -19 14 -28 -13 -28 -24 0 -34 18 -18 33 9 10 17 9 31 -5z"/>
<path d="M1486 2711 c-18 -7 -18 -8 -2 -14 10 -4 35 -4 57 -1 37 6 40 5 50
-25 6 -17 15 -31 21 -31 5 0 6 5 3 10 -3 6 1 10 9 10 9 0 16 5 16 11 0 6 -8 8
-19 4 -14 -4 -21 0 -26 15 -4 12 -15 20 -28 20 -12 0 -31 2 -42 5 -11 2 -29 1
-39 -4z"/>
<path d="M1246 2695 c18 -15 18 -15 -11 -13 -24 2 -31 -1 -33 -19 -2 -13 4
-26 15 -32 24 -12 44 -1 46 27 1 12 6 22 11 22 12 0 -26 29 -38 30 -6 0 -1 -7
10 -15z"/>
<path d="M1652 2682 c4 -13 0 -23 -10 -27 -8 -3 -13 -8 -10 -11 8 -7 58 14 58
25 0 6 -10 15 -21 22 -20 10 -21 9 -17 -9z"/>
<path d="M1467 2650 c11 -10 21 -13 24 -7 4 5 19 7 34 3 16 -4 24 -3 21 3 -4
5 2 12 11 14 10 3 -10 5 -45 5 -59 -1 -61 -2 -45 -18z"/>
<path d="M2387 2590 c3 -47 7 -87 9 -89 7 -8 3 94 -6 134 -6 28 -6 14 -3 -45z"/>
<path d="M1173 2629 c-22 -65 -24 -79 -14 -79 6 0 11 7 11 16 0 9 5 12 12 8 7
-4 8 -3 4 5 -4 6 -4 17 2 24 5 7 6 23 3 36 -6 22 -7 21 -18 -10z"/>
<path d="M2177 2621 c-3 -20 -9 -46 -12 -57 -6 -19 -3 -21 19 -17 32 6 34 -9
4 -31 -22 -15 -21 -16 10 -1 37 18 36 15 21 52 -7 15 -12 42 -12 59 0 43 -24
39 -30 -5z"/>
<path d="M1719 2641 c9 -6 10 -11 3 -15 -6 -4 -8 -14 -5 -23 5 -12 2 -15 -8
-11 -10 4 -14 -2 -14 -18 0 -13 6 -26 13 -29 9 -3 11 1 7 15 -4 14 -2 20 7 18
7 -2 12 2 11 9 -2 7 2 24 7 38 8 22 7 25 -13 25 -16 0 -18 -3 -8 -9z"/>
<path d="M2270 2619 c0 -5 -4 -7 -10 -4 -6 3 -7 -1 -4 -9 9 -23 34 -20 34 4 0
11 -4 20 -10 20 -5 0 -10 -5 -10 -11z"/>
<path d="M1473 2614 c4 -4 -1 -13 -11 -20 -9 -7 -13 -16 -8 -21 5 -4 11 -2 13
5 3 6 9 12 14 12 6 0 7 -4 4 -10 -4 -6 1 -7 11 -3 11 4 13 8 6 11 -7 2 -10 7
-7 12 3 4 -3 11 -12 14 -10 4 -14 4 -10 0z"/>
<path d="M1111 2566 c-19 -20 -21 -26 -9 -26 19 0 41 25 36 40 -2 6 -14 0 -27
-14z"/>
<path d="M1763 2573 c6 -27 -9 -41 -16 -16 -4 14 -5 13 -6 -4 -1 -16 5 -23 18
-23 11 0 22 -6 25 -12 3 -7 3 1 -1 17 -3 17 -10 37 -15 45 -7 11 -8 9 -5 -7z"/>
<path d="M1436 2551 c-7 -10 87 -35 106 -29 7 3 -8 8 -34 12 -27 4 -48 11 -48
17 0 12 -17 12 -24 0z"/>
<path d="M2356 2503 c-12 -12 -7 -160 7 -171 9 -8 13 9 15 78 3 79 -4 111 -22
93z"/>
<path d="M1635 2491 c20 -10 20 -10 0 -11 -14 -1 -10 -5 15 -15 46 -18 63 -17
25 1 l-30 14 35 -5 c24 -4 30 -3 20 3 -8 6 -31 12 -50 16 -26 4 -30 3 -15 -3z"/>
<path d="M1848 2478 c17 -17 42 -19 42 -2 0 9 -10 14 -27 14 -21 0 -24 -3 -15
-12z"/>
<path d="M1885 2440 c-20 -8 -20 -8 -1 -16 13 -5 21 -3 24 4 2 7 8 10 13 6 5
-3 9 0 9 5 0 13 -17 13 -45 1z"/>
<path d="M1000 2430 c-12 -8 -11 -10 6 -10 62 0 102 -41 135 -135 7 -20 7 -20
8 0 1 11 -11 44 -26 73 -21 41 -33 55 -55 59 -16 3 -31 10 -34 14 -7 11 -15
11 -34 -1z"/>
<path d="M1160 2420 c0 -5 7 -10 15 -10 8 0 14 -3 13 -7 -1 -5 3 -17 9 -28 12
-24 25 -187 13 -180 -4 3 -13 33 -20 68 -14 74 -30 108 -30 64 0 -36 49 -187
61 -187 11 0 10 -4 12 82 1 36 -2 61 -6 55 -4 -7 -5 6 -1 28 4 22 11 46 16 52
7 9 1 22 -20 43 -30 29 -62 40 -62 20z"/>
<path d="M2106 2421 c-5 -7 5 -11 29 -11 25 0 34 -4 29 -12 -4 -7 -3 -8 5 -4
6 4 18 2 26 -4 9 -7 15 -8 15 -2 0 26 -91 55 -104 33z"/>
<path d="M958 2369 c-2 -13 0 -31 3 -39 4 -8 19 -50 34 -92 15 -43 29 -78 32
-78 8 0 -8 58 -25 93 -9 17 -17 52 -18 75 -2 50 -20 78 -26 41z"/>
<path d="M800 2367 c0 -4 16 -30 35 -57 l35 -50 -26 0 c-14 0 -32 -7 -41 -15
-21 -21 -30 -10 -11 12 23 27 29 52 18 74 -17 31 -52 22 -124 -33 -37 -29 -79
-59 -92 -66 -31 -17 -30 -28 4 -49 39 -26 92 -83 92 -101 0 -8 3 -12 7 -9 3 4
13 -2 20 -13 13 -19 109 -80 126 -80 4 0 7 5 7 10 0 6 -6 10 -13 10 -16 0 -74
41 -75 53 0 5 -9 15 -19 23 -10 7 -15 14 -11 14 4 0 -4 11 -17 25 -14 13 -25
29 -25 35 0 5 -6 10 -13 10 -8 0 -22 9 -32 20 -22 24 -16 32 60 84 84 58 110
32 42 -41 -17 -18 -27 -33 -22 -33 5 0 4 -5 -3 -12 -7 -7 -12 -16 -12 -22 0
-5 6 -1 14 9 8 11 12 24 9 28 -3 5 3 7 13 5 11 -2 18 2 16 10 -1 6 1 11 5 10
5 -1 24 5 44 14 20 9 46 19 58 23 11 3 19 11 16 16 -4 5 -3 14 1 20 4 8 9 7
15 -2 7 -11 9 -10 9 3 0 10 -14 32 -31 50 -26 28 -29 30 -18 8 7 -14 16 -28
22 -31 5 -4 6 -12 2 -18 -4 -8 -20 3 -45 31 -22 24 -39 40 -40 35z"/>
<path d="M1055 2266 c3 -27 5 -73 5 -102 0 -30 4 -54 8 -54 10 0 3 136 -9 175
-7 25 -8 21 -4 -19z"/>
<path d="M2347 2248 c-9 -29 -15 -54 -13 -56 2 -2 12 20 21 48 9 28 15 53 13
55 -2 3 -12 -19 -21 -47z"/>
<path d="M906 2240 c6 -22 5 -23 -10 -11 -14 12 -16 12 -10 -3 4 -12 0 -16
-15 -16 -23 0 -28 -14 -9 -26 7 -4 8 -3 4 4 -4 7 -4 12 1 12 13 -1 39 -24 46
-40 4 -11 6 -9 6 6 1 11 -5 26 -11 32 -10 10 -8 14 10 18 12 4 22 11 22 16 0
5 -4 7 -9 3 -6 -3 -15 3 -21 12 -9 15 -10 14 -4 -7z"/>
<path d="M1151 2158 l-1 -88 -27 0 c-20 0 -24 -3 -14 -9 20 -13 9 -100 -15
-118 -28 -21 -36 -16 -30 20 3 17 3 26 0 19 -3 -6 -9 -10 -14 -7 -5 3 -6 -9
-3 -27 3 -23 0 -35 -13 -45 -29 -21 -33 -16 -30 35 2 26 2 36 -1 22 -5 -30
-22 -69 -42 -92 -8 -10 -10 -18 -5 -18 19 0 94 26 90 31 -3 2 7 13 22 23 39
26 65 65 65 97 0 23 2 25 11 13 9 -12 11 -11 12 8 1 13 4 48 7 78 3 30 1 75
-3 100 -6 39 -8 33 -9 -42z"/>
<path d="M928 2205 c-9 -10 46 -165 59 -165 7 0 13 7 13 15 0 8 -8 15 -17 15
-13 0 -14 3 -6 8 10 6 8 22 -8 70 -19 58 -28 70 -41 57z"/>
<path d="M2295 2200 c-3 -5 -17 -10 -30 -10 -13 0 -27 -4 -30 -10 -3 -5 -14
-10 -24 -10 -10 0 -25 -7 -32 -16 -12 -15 -11 -16 11 -9 41 13 130 53 130 59
0 10 -18 7 -25 -4z"/>
<path d="M515 2164 c-12 -18 -13 -29 -6 -38 9 -10 5 -13 -16 -13 -16 0 -38 -3
-50 -7 -18 -6 -20 -10 -10 -21 6 -7 16 -11 20 -8 13 8 58 -18 83 -47 12 -14
21 -26 20 -28 -2 -1 -27 3 -57 9 -61 13 -87 29 -46 29 15 0 27 5 27 10 0 6 -3
10 -7 11 -5 0 -17 2 -28 4 -11 2 -29 -2 -40 -9 -11 -7 -34 -11 -50 -9 -22 3
-36 -1 -49 -16 -18 -20 -18 -20 14 -11 18 5 37 7 42 4 5 -4 22 -7 36 -9 15 -2
54 -8 87 -14 33 -6 68 -8 77 -5 10 3 18 1 18 -4 0 -5 12 -22 28 -38 15 -16 39
-45 53 -64 15 -19 30 -32 34 -28 4 4 -5 22 -21 40 -16 19 -40 50 -54 70 -14
21 -34 41 -45 47 -19 9 -19 10 3 10 13 1 32 -9 43 -21 10 -13 18 -18 19 -12 0
11 -50 63 -53 55 -5 -12 -94 22 -94 35 0 9 7 12 18 9 9 -3 20 -1 24 5 5 8 16
3 34 -13 32 -31 67 -42 77 -26 5 8 2 10 -7 7 -20 -8 -53 17 -43 33 4 7 3 10
-3 6 -6 -4 -16 0 -23 8 -6 7 -18 11 -27 8 -12 -5 -11 -1 3 15 22 26 25 27 18
7 -4 -11 1 -14 23 -12 19 1 27 -2 25 -11 -1 -8 2 -11 7 -8 5 4 11 0 14 -6 2
-7 7 -10 11 -7 8 8 -62 75 -75 72 -5 -2 -9 2 -9 7 0 19 -28 10 -45 -16z"/>
<path d="M803 2173 c0 -7 4 -10 9 -7 4 3 8 -1 8 -9 0 -18 77 -137 89 -137 14
0 1 39 -26 78 -13 19 -23 41 -23 48 0 7 -4 16 -10 19 -6 4 -7 -1 -3 -11 4 -12
3 -15 -6 -10 -7 5 -11 16 -8 25 2 11 -2 17 -13 17 -9 0 -17 -6 -17 -13z"/>
<path d="M994 2155 c3 -11 7 -33 10 -49 7 -42 16 -45 16 -5 0 20 -7 44 -16 55
-15 19 -15 19 -10 -1z"/>
<path d="M762 2140 c-26 -21 -27 -27 -8 -27 8 0 14 5 13 10 -5 24 20 14 36
-14 10 -18 20 -29 23 -26 3 3 -5 21 -18 40 -23 34 -24 35 -46 17z"/>
<path d="M2295 2123 c-11 -21 -43 -67 -72 -104 l-52 -68 22 -30 c12 -16 41
-54 63 -83 23 -29 54 -74 69 -100 l27 -48 -36 0 c-40 0 -65 20 -92 72 -9 18
-30 50 -46 70 -24 30 -34 36 -58 33 -16 -2 -32 1 -35 6 -8 12 -25 12 -25 -1 0
-5 6 -10 13 -10 8 0 22 -9 31 -19 13 -15 14 -20 4 -24 -10 -4 -10 -6 0 -6 7
-1 15 6 19 15 4 12 8 13 14 3 4 -8 3 -20 -4 -28 -10 -11 -8 -13 10 -7 18 6 24
0 40 -33 10 -23 23 -39 31 -36 6 2 12 0 12 -5 0 -5 -9 -12 -20 -15 -37 -12
-12 -21 61 -23 40 -2 76 -5 81 -8 35 -22 -32 101 -108 200 -30 38 -54 73 -54
76 0 4 15 27 34 51 43 57 99 149 94 154 -2 2 -13 -12 -23 -32z"/>
<path d="M1310 2123 c0 -4 14 -21 30 -37 21 -20 30 -25 30 -14 0 14 -20 37
-47 52 -7 4 -13 4 -13 -1z"/>
<path d="M1928 2098 c6 -6 8 -16 6 -23 -6 -16 24 -41 36 -29 5 5 11 20 15 35
6 23 4 25 -30 26 -25 1 -34 -2 -27 -9z"/>
<path d="M764 2088 c-4 -6 -3 -8 3 -5 6 4 33 -20 61 -53 46 -55 50 -64 45 -98
-3 -20 -10 -41 -16 -47 -6 -7 -8 1 -3 24 5 27 3 32 -10 27 -9 -3 -19 -6 -22
-6 -4 0 -2 -4 4 -8 23 -15 25 -58 3 -78 -20 -18 -20 -18 -14 9 4 15 3 27 -3
27 -15 0 -82 92 -75 103 3 6 1 7 -5 3 -13 -8 -16 -36 -4 -36 4 0 22 -22 41
-50 31 -46 33 -52 21 -80 -15 -37 -19 -35 -24 17 -3 33 -43 110 -52 100 -1 -1
1 -18 6 -37 4 -19 9 -28 9 -20 1 12 4 11 12 -3 12 -20 3 -41 -13 -31 -7 5 -9
1 -5 -9 4 -11 -2 -22 -15 -31 -26 -19 -15 -35 12 -18 22 13 53 6 47 -12 -5
-16 -45 -19 -77 -6 -34 14 -63 3 -35 -13 11 -6 14 -12 6 -16 -7 -5 -8 -18 -1
-43 8 -26 17 -37 35 -40 20 -4 25 0 31 26 4 17 7 37 5 44 -1 6 4 12 12 12 8 0
22 15 32 34 11 19 28 37 39 40 23 6 76 94 69 114 -3 6 0 12 6 12 7 0 7 8 2 22
-6 17 -4 26 8 35 14 10 13 11 -6 6 -17 -4 -23 -1 -23 10 0 19 -40 58 -51 51
-5 -3 -14 4 -21 16 -15 23 -24 25 -34 8z"/>
<path d="M1246 2072 c-8 -14 8 -28 32 -28 12 0 22 1 22 2 0 8 -50 32 -54 26z"/>
<path d="M1080 2061 c0 -7 -4 -9 -10 -6 -5 3 -10 -1 -10 -9 0 -8 5 -18 10 -21
6 -3 10 -20 10 -36 0 -20 4 -29 13 -26 6 2 11 10 9 17 -2 8 -4 28 -6 46 -2 32
-16 61 -16 35z"/>
<path d="M650 2042 c0 -7 5 -12 10 -12 6 0 9 -3 9 -7 -1 -5 -1 -15 0 -23 1
-12 3 -12 10 -2 7 11 9 11 14 -2 4 -9 2 -16 -3 -16 -6 0 -10 -7 -10 -15 0 -8
4 -15 9 -15 13 0 22 43 11 54 -4 4 -7 14 -6 20 2 6 1 7 -2 3 -2 -5 -13 -1 -23
9 -11 10 -19 12 -19 6z"/>
<path d="M1019 2037 c-14 -11 -14 -14 1 -30 17 -17 18 -17 23 1 7 29 -5 43
-24 29z"/>
<path d="M1220 2041 c0 -5 7 -12 16 -15 13 -5 14 -9 4 -21 -7 -8 -16 -13 -20
-10 -9 5 -60 -43 -60 -56 0 -5 -6 -9 -13 -9 -7 0 -20 -16 -27 -36 -17 -42 -40
-57 -77 -48 -22 4 -25 3 -13 -5 13 -9 12 -11 -4 -11 -19 0 -19 0 -1 -14 24
-17 50 -10 70 21 9 14 19 22 22 19 7 -6 22 18 48 72 17 35 30 44 20 13 -5 -18
-4 -18 30 -3 19 9 35 20 35 26 0 5 9 1 19 -8 11 -10 25 -15 31 -11 9 6 9 10
-1 17 -10 7 -8 8 9 5 12 -3 22 -1 22 3 0 5 -13 11 -30 15 -16 4 -30 11 -30 16
0 11 3 11 37 -2 21 -7 25 -7 17 1 -6 6 -24 12 -39 14 -15 2 -34 10 -40 20 -13
18 -25 21 -25 7z"/>
<path d="M2023 2010 c-13 -5 -23 -7 -23 -4 0 12 -90 -59 -141 -113 -92 -95
-109 -127 -109 -205 0 -57 4 -71 26 -97 14 -17 30 -31 34 -31 5 0 -2 11 -16
25 -31 31 -27 66 15 135 21 34 33 44 50 43 13 -2 20 1 16 7 -3 6 0 10 7 10 9
0 9 3 -2 10 -12 7 -12 12 -2 22 9 9 12 9 12 -2 0 -9 5 -8 15 6 17 23 19 34 4
34 -5 0 -8 -4 -4 -9 3 -5 1 -12 -4 -15 -5 -4 -13 -2 -16 4 -5 8 -11 8 -20 0
-8 -7 -19 -9 -24 -6 -17 11 124 150 160 158 8 2 16 5 19 8 3 3 16 11 30 17 29
14 5 16 -27 3z m-169 -212 c-15 -18 -31 -32 -35 -31 -4 2 -14 -13 -20 -32 -16
-43 -26 -45 -26 -5 0 17 3 26 7 20 5 -8 9 -7 13 4 4 9 1 16 -6 17 -9 0 -9 2 1
6 6 2 12 11 12 19 0 11 4 13 17 6 12 -7 22 -4 37 9 31 29 31 23 0 -13z"/>
<path d="M400 2001 c0 -4 17 -20 37 -34 49 -35 36 -34 -35 2 -62 32 -101 34
-129 5 -17 -17 -16 -17 12 -10 17 4 27 4 22 0 -4 -4 4 -15 19 -24 14 -10 26
-21 26 -26 1 -5 7 -14 15 -19 12 -9 12 -16 2 -37 -11 -26 -12 -26 -31 -8 -16
15 -24 16 -48 7 -29 -11 -31 -27 -4 -27 8 0 12 5 9 10 -11 18 11 11 30 -10 10
-11 22 -17 26 -14 5 3 6 -2 3 -10 -7 -19 -20 -21 -30 -5 -3 6 -18 8 -33 5 -19
-5 -22 -4 -11 4 11 7 7 10 -20 9 -19 0 -44 -4 -54 -8 -18 -7 -18 -8 -3 -14 9
-3 17 -12 16 -19 0 -10 -2 -10 -6 0 -4 9 -9 10 -18 2 -9 -8 -14 -7 -18 4 -6
16 37 61 51 52 5 -3 9 1 9 8 0 8 -7 12 -16 9 -10 -3 -8 1 5 10 11 8 27 15 35
15 8 -1 34 0 59 1 l45 3 -32 9 c-18 5 -33 12 -33 15 0 3 10 2 23 -1 17 -5 19
-4 7 4 -21 15 -56 13 -91 -4 -33 -18 -89 -89 -89 -115 0 -9 -5 -21 -11 -27
-12 -12 -8 -65 9 -140 5 -23 5 -40 1 -37 -5 3 -9 0 -9 -5 0 -14 27 -14 32 0 2
6 31 13 65 16 39 4 60 10 56 16 -4 7 1 8 12 3 11 -4 22 -1 27 6 7 10 10 10 18
-2 25 -39 29 -44 35 -38 3 3 -1 13 -10 21 -22 23 -20 25 38 21 28 -2 62 -3 75
-4 17 0 22 -6 22 -25 0 -24 -2 -25 -64 -25 -36 0 -68 -5 -71 -11 -5 -6 -12 -4
-22 8 -10 13 -16 15 -19 6 -3 -7 -16 -13 -29 -13 -13 0 -26 -4 -29 -9 -3 -4 5
-6 17 -4 12 2 33 0 47 -5 20 -7 12 -10 -48 -16 -39 -4 -74 -11 -77 -17 -4 -5
-20 -8 -36 -7 -28 2 -29 4 -12 15 9 8 23 11 30 9 7 -3 12 0 10 6 -1 6 4 13 12
16 8 3 11 0 7 -7 -8 -13 3 -14 23 -2 21 13 -20 24 -62 16 -29 -6 -35 -12 -47
-53 -8 -26 -13 -72 -12 -102 2 -30 2 -75 2 -100 0 -28 8 -61 21 -85 l21 -41
-26 -65 c-14 -36 -26 -78 -26 -93 0 -30 24 -45 50 -29 19 13 95 2 113 -16 17
-17 48 -13 73 10 18 17 22 18 27 5 4 -10 1 -13 -9 -9 -9 3 -14 -1 -14 -11 0
-9 -9 -34 -20 -56 -25 -48 -25 -60 -2 -60 17 0 72 60 72 80 0 13 22 52 35 63
6 5 -5 6 -22 3 -43 -7 -42 7 2 24 33 13 35 16 35 59 0 25 -5 53 -10 61 -8 11
-9 -2 -6 -42 4 -46 2 -58 -9 -58 -8 0 -15 -4 -15 -10 0 -15 -67 -23 -99 -12
-23 8 -32 7 -45 -6 -10 -11 -16 -12 -16 -4 0 7 -12 12 -27 12 -22 0 -25 2 -13
10 11 7 3 9 -27 7 -35 -3 -41 0 -40 15 1 12 9 18 23 18 13 0 30 8 40 17 15 16
15 17 -2 23 -10 4 -13 9 -7 13 13 8 123 6 123 -3 0 -4 6 -7 13 -7 6 0 22 -3
35 -7 13 -4 22 -3 22 3 0 15 -69 34 -135 37 -33 2 -62 3 -64 4 -2 0 2 6 8 14
13 15 78 7 149 -18 23 -8 42 -12 42 -7 0 13 -45 30 -115 42 -36 7 -65 17 -65
23 1 17 23 41 40 43 8 1 34 6 57 11 23 5 48 5 55 1 23 -15 50 -10 55 11 3 11
8 20 12 20 3 0 12 9 18 19 10 16 9 18 -7 14 -11 -3 -19 -8 -18 -12 2 -20 -5
-20 -29 -3 -51 35 -53 35 -53 6 0 -21 3 -25 11 -17 14 14 39 6 39 -12 0 -7
-12 -12 -29 -11 -16 1 -27 4 -24 9 2 4 -2 7 -11 7 -8 0 -16 4 -18 8 -5 13 -68
-7 -68 -21 0 -15 -51 -47 -73 -47 -24 0 -26 33 -4 57 26 29 14 43 -14 17 -21
-19 -21 -19 -8 9 10 22 18 28 36 24 19 -3 21 -2 11 10 -15 18 -22 83 -9 83 5
0 17 -7 26 -16 8 -9 22 -14 29 -11 8 3 17 3 21 -1 10 -10 75 -9 75 1 0 5 10
17 23 28 12 10 16 18 10 19 -7 0 -13 -4 -13 -9 0 -5 -21 -3 -47 5 -55 17 -122
19 -107 4 6 -6 33 -11 62 -13 28 -2 55 -6 58 -10 12 -12 -89 -6 -125 7 -29 10
-31 14 -18 25 13 10 94 27 157 32 8 0 4 5 -10 9 -24 8 -23 8 7 9 25 1 31 -2
27 -14 -4 -10 0 -15 15 -15 12 0 24 -6 27 -14 6 -16 30 -11 52 11 11 11 11 13
-2 13 -12 0 -14 5 -6 24 7 21 5 25 -15 28 -14 3 -26 0 -29 -8 -3 -8 -13 -14
-23 -14 -34 0 11 31 50 35 32 3 37 0 37 -18 0 -11 3 -17 7 -13 5 4 8 13 8 19
0 5 5 12 12 14 7 3 10 -4 7 -19 -3 -15 1 -11 13 12 10 19 21 37 26 38 4 2 7
21 7 43 0 29 -4 39 -16 39 -11 0 -14 -6 -9 -22 6 -18 4 -20 -11 -13 -11 4 -27
8 -37 9 -11 0 -15 6 -12 15 4 11 2 11 -9 2 -10 -8 -21 -9 -42 -1 -15 6 -40 8
-56 5 -27 -6 -28 -6 -17 19 18 38 2 45 -26 12 -14 -16 -25 -24 -25 -18 0 7 -5
12 -11 12 -5 0 -7 -4 -4 -10 4 -7 -3 -7 -19 0 -14 5 -26 6 -26 3 0 -4 -5 -2
-12 5 -8 8 -17 8 -31 1 -15 -8 -23 -7 -35 5 -15 15 -14 16 9 16 14 0 29 4 35
9 5 5 20 12 34 15 l25 7 -25 -16 c-25 -16 -25 -16 15 -11 102 12 115 17 115
45 0 15 5 32 11 38 6 6 13 38 16 71 6 62 -2 81 -37 95 -12 4 -12 6 2 6 9 1 20
-4 23 -9 4 -6 11 -7 17 -4 7 4 8 2 4 -4 -5 -8 1 -12 14 -12 12 0 31 -5 42 -11
15 -8 22 -8 28 0 9 15 40 3 34 -13 -5 -13 58 -47 78 -42 7 1 10 1 6 -1 -5 -3
-3 -13 2 -23 7 -12 7 -28 0 -46 -6 -15 -9 -29 -6 -31 7 -7 26 59 20 71 -3 6 2
2 10 -8 9 -11 16 -24 16 -30 0 -5 3 -7 6 -4 11 12 -25 76 -67 119 -24 24 -43
46 -42 49 1 3 -7 6 -17 6 -10 0 -16 -6 -13 -13 7 -18 -3 -16 -26 4 -25 21 -81
45 -81 34z m-117 -243 c14 -14 15 -18 3 -18 -17 0 -41 23 -58 53 l-11 22 24
-20 c13 -11 32 -28 42 -37z m51 7 c16 -12 17 -15 4 -15 -24 0 -48 11 -48 21 0
13 23 10 44 -6z"/>
<path d="M2025 1970 c-4 -6 1 -7 12 -4 11 4 6 -4 -12 -20 -16 -14 -38 -28 -47
-31 -17 -6 -26 -25 -12 -25 14 0 93 73 88 81 -7 12 -21 11 -29 -1z"/>
<path d="M226 1937 c-11 -8 -17 -20 -14 -27 3 -10 8 -9 20 4 9 9 27 20 40 25
l23 10 -26 0 c-14 1 -33 -5 -43 -12z"/>
<path d="M2035 1916 c-63 -31 -91 -55 -100 -86 -6 -19 4 -12 44 29 29 30 57
51 65 48 8 -3 33 -1 57 5 35 9 39 13 23 19 -29 12 -35 11 -89 -15z"/>
<path d="M2593 1899 c21 -5 47 -14 58 -19 10 -6 19 -8 19 -5 0 10 -68 35 -92
34 -15 -1 -9 -4 15 -10z"/>
<path d="M2516 1887 c-16 -12 -17 -16 -5 -35 11 -17 11 -24 1 -34 -10 -10 -17
-10 -33 0 -24 16 -56 7 -63 -16 -3 -10 -2 -32 3 -50 5 -17 7 -32 3 -32 -4 0 0
-5 8 -10 9 -6 10 -10 3 -10 -6 0 -31 -21 -56 -46 -39 -42 -50 -47 -98 -52 -30
-3 -56 -8 -59 -12 -3 -4 -13 -11 -24 -17 -12 -7 -15 -13 -8 -17 6 -4 20 2 31
13 11 11 21 17 24 15 2 -3 -18 -29 -46 -59 -54 -58 -74 -67 -36 -16 12 17 20
34 16 38 -4 3 -8 4 -10 2 -1 -2 -29 -34 -61 -72 -55 -64 -57 -69 -51 -110 6
-40 5 -41 -10 -22 -11 13 -15 32 -12 56 4 34 16 53 75 117 46 51 19 35 -32
-20 -58 -61 -73 -104 -52 -148 6 -14 20 -26 31 -28 11 -3 24 -10 28 -18 4 -8
16 -14 26 -14 11 0 33 -16 50 -35 17 -19 35 -35 41 -35 5 0 10 -3 10 -8 0 -15
59 -72 75 -72 9 0 13 5 10 10 -4 6 -10 8 -15 5 -10 -6 -42 24 -36 34 3 4 -6
15 -19 25 -14 10 -22 22 -20 27 3 4 1 10 -4 13 -11 7 -1 52 27 124 11 28 16
54 11 57 -11 7 -49 -67 -50 -97 0 -22 -1 -22 -10 -3 -8 17 -9 16 -5 -8 2 -15
-1 -30 -5 -33 -5 -3 -9 20 -9 51 0 49 4 61 28 83 40 39 64 74 29 43 -33 -30
-36 -17 -4 18 l22 26 -28 -25 c-16 -14 -45 -51 -64 -82 -20 -32 -40 -55 -44
-52 -5 3 -9 0 -9 -6 0 -6 -5 -8 -10 -5 -8 5 -7 11 1 21 6 8 19 27 28 43 23 41
151 153 168 147 8 -3 11 -2 8 4 -3 5 3 14 14 19 26 14 31 14 31 -4 0 -8 -6
-14 -12 -12 -8 1 -12 -6 -10 -19 2 -14 -5 -24 -23 -32 -14 -6 -25 -17 -25 -23
0 -8 5 -8 15 1 9 7 18 10 22 7 9 -10 41 31 48 62 3 14 15 33 27 40 18 11 20
11 14 -4 -3 -9 -6 -19 -6 -21 0 -3 -4 -3 -8 0 -5 3 -9 -11 -10 -30 -1 -19 -8
-49 -16 -67 -26 -60 -26 -75 3 -93 24 -16 25 -16 12 -1 -9 12 -10 17 -2 17 8
0 10 8 6 20 -4 12 1 31 13 48 15 20 18 32 10 45 -6 12 -4 35 8 75 10 31 16 65
15 76 -2 11 2 16 8 12 6 -4 11 -16 11 -26 0 -23 16 -35 23 -18 3 8 6 6 6 -4 1
-10 -3 -18 -9 -18 -11 0 -14 -33 -3 -44 4 -3 12 3 18 14 11 20 12 20 26 4 12
-16 12 -17 -3 -12 -29 11 -27 -27 3 -76 29 -45 30 -62 2 -28 -8 9 -2 -7 13
-35 15 -29 30 -54 33 -54 3 -1 16 -3 27 -4 12 -1 26 -5 33 -9 6 -4 11 -1 11 9
0 12 4 14 19 5 29 -15 36 -12 18 8 -23 25 -15 29 38 25 39 -4 45 -2 45 15 0
12 9 22 23 27 14 4 17 8 9 12 -7 3 -19 -1 -27 -7 -8 -7 -21 -10 -29 -7 -8 3
-17 1 -20 -6 -3 -9 -5 -9 -5 0 -1 8 -9 8 -33 0 -18 -7 -35 -15 -38 -19 -3 -4
-15 -5 -26 -2 -21 5 -30 39 -13 49 20 13 9 52 -18 64 l-28 12 25 -21 c18 -16
20 -19 5 -12 -11 6 -29 20 -40 33 -11 12 -14 19 -7 15 8 -5 -2 15 -22 44 -35
51 -45 80 -27 80 5 0 8 19 7 43 -1 40 0 42 32 45 27 3 32 0 32 -17 0 -23 16
-29 23 -8 2 6 8 9 12 5 4 -4 2 -15 -5 -23 -10 -12 -10 -19 -2 -27 7 -7 12 -20
12 -30 0 -12 7 -18 21 -18 21 0 22 9 5 51 -5 12 3 18 34 28 22 6 40 16 40 21
0 13 -4 13 -47 -5 -44 -19 -43 -19 -43 4 0 10 -7 24 -15 31 -14 12 -12 15 12
31 26 18 26 19 6 19 -16 0 -22 7 -25 27 -4 32 -17 38 -42 20z m-369 -574 c-4
-26 -5 -27 -12 -6 -4 13 -13 19 -21 16 -8 -3 -14 0 -14 7 0 6 5 8 10 5 6 -4
16 8 23 27 l12 33 3 -27 c2 -16 1 -40 -1 -55z"/>
<path d="M2030 1865 c-24 -49 -24 -51 -5 -35 11 9 16 10 11 2 -5 -9 -1 -11 16
-8 13 3 29 5 37 5 15 1 7 15 -10 17 -5 1 -13 2 -18 3 -5 0 -11 11 -13 23 -3
21 -4 20 -18 -7z"/>
<path d="M2680 1860 c0 -10 44 -60 54 -60 19 0 2 37 -24 52 -17 9 -30 13 -30
8z"/>
<path d="M438 1813 c-21 -2 -38 -6 -38 -7 0 -7 114 -116 117 -112 9 8 32 110
27 118 -5 8 -35 8 -106 1z m62 -43 c0 -23 -10 -26 -28 -8 -18 18 -15 28 8 28
13 0 20 -7 20 -20z"/>
<path d="M2747 1796 c-3 -8 4 -33 16 -57 24 -48 30 -136 10 -131 -7 1 -13 -3
-13 -8 0 -5 -7 -10 -16 -10 -10 0 -14 -6 -10 -15 3 -8 -2 -19 -12 -24 -14 -9
-11 -10 15 -11 25 0 30 3 26 18 -3 13 4 22 22 30 17 8 25 18 21 27 -3 8 -1 17
4 20 18 11 11 64 -11 86 -12 12 -22 28 -23 36 -1 8 -9 19 -17 24 -10 6 -10 9
-1 9 6 0 12 5 12 10 0 15 -17 12 -23 -4z"/>
<path d="M2810 1767 c38 -58 69 -126 70 -151 0 -30 -40 -107 -52 -99 -7 3 -8
1 -4 -5 3 -6 -2 -16 -13 -21 -14 -8 -20 -8 -23 1 -3 9 -6 9 -12 0 -4 -7 -2
-12 4 -12 7 0 3 -15 -10 -37 -13 -24 -14 -29 -3 -14 10 14 33 39 52 55 36 33
70 97 71 132 0 27 -52 130 -85 169 -22 25 -21 21 5 -18z"/>
<path d="M865 1786 c-18 -13 -18 -14 8 -9 20 4 27 1 27 -11 0 -9 -3 -16 -7
-16 -5 0 -8 -14 -9 -30 -1 -38 7 -30 22 21 7 23 8 39 2 39 -5 0 -6 5 -3 10 9
15 -18 12 -40 -4z"/>
<path d="M2001 1764 c-22 -27 -27 -44 -13 -44 7 0 45 70 38 70 -3 0 -14 -12
-25 -26z"/>
<path d="M2094 1768 c0 -21 0 -21 46 -3 39 15 39 16 -10 18 -28 2 -36 -2 -36
-15z"/>
<path d="M772 1710 c-14 -43 -15 -57 -6 -49 23 19 17 -18 -8 -52 l-23 -31 -6
29 -7 28 -1 -30 c0 -17 6 -58 15 -90 11 -43 13 -80 9 -131 -4 -40 -4 -91 0
-115 7 -39 9 -42 16 -21 5 13 7 28 3 33 -3 5 -2 14 1 19 10 16 13 141 4 172
-4 16 -4 30 2 33 5 4 9 22 9 42 0 22 7 41 18 50 9 8 12 12 6 9 -8 -4 -11 21
-10 79 1 47 1 85 0 85 -1 0 -11 -27 -22 -60z"/>
<path d="M1890 1758 c0 -7 -14 -40 -30 -72 -21 -40 -30 -73 -30 -105 0 -33 3
-42 10 -31 7 12 10 8 10 -15 l1 -30 16 30 c9 17 19 32 22 35 8 5 31 103 27
108 -2 1 -11 -19 -21 -45 -20 -54 -31 -70 -42 -59 -4 4 8 35 27 69 24 46 28
57 13 44 -16 -14 -20 -15 -20 -2 0 8 4 15 9 15 5 0 6 5 3 10 -10 15 12 12 28
-5 13 -12 16 -12 20 -1 3 8 -1 17 -9 20 -8 3 -14 10 -14 16 0 6 5 8 13 3 13
-8 37 -13 37 -8 0 4 -60 35 -67 35 -1 0 -3 -6 -3 -12z"/>
<path d="M2156 1751 c-3 -5 -34 -23 -67 -41 -47 -24 -60 -28 -55 -15 3 9 6 19
6 21 0 3 5 2 12 -2 7 -4 8 -3 4 5 -9 15 -48 -7 -54 -30 -3 -11 -1 -11 7 1 9
13 11 12 11 -5 0 -12 -5 -26 -11 -32 -13 -13 -42 -6 -33 8 3 5 10 7 15 4 5 -3
6 2 2 11 -6 15 -8 15 -25 -6 -10 -12 -18 -17 -18 -12 0 6 5 14 10 17 6 3 10
16 10 28 l0 21 -15 -21 c-8 -12 -17 -36 -20 -55 -7 -51 -32 -113 -38 -97 -3 8
-6 -2 -6 -22 -1 -19 6 -44 14 -55 13 -18 14 -16 13 26 -2 46 28 140 43 140 5
0 17 -8 27 -18 10 -10 26 -21 35 -25 16 -6 15 -9 -3 -39 -22 -37 -27 -63 -6
-33 32 46 84 95 126 119 43 25 44 26 15 25 -42 -2 -95 -19 -95 -30 0 -6 8 -6
19 1 24 12 31 13 31 2 0 -5 -17 -16 -37 -26 -35 -17 -38 -17 -50 0 -11 16 -9
22 18 46 17 16 35 26 40 23 5 -4 9 -1 9 5 0 6 5 8 10 5 6 -3 10 -2 10 3 0 5
11 7 24 5 27 -6 45 15 25 28 -9 6 -10 9 -2 9 7 0 17 -8 23 -17 11 -17 11 -17
6 0 -3 10 -6 23 -6 28 0 12 -17 12 -24 0z"/>
<path d="M603 1742 c-6 -4 -9 -19 -6 -34 3 -15 9 -26 13 -23 5 3 6 14 3 25 -4
14 0 20 11 20 9 0 16 5 16 10 0 12 -20 13 -37 2z"/>
<path d="M816 1710 c3 -25 6 -57 7 -72 0 -15 4 -25 9 -22 13 8 27 -39 16 -53
-14 -17 13 -18 30 -1 15 15 16 32 2 23 -5 -3 -10 1 -10 9 0 9 -4 16 -9 16 -5
0 -11 10 -14 23 -3 12 -13 45 -22 72 l-15 50 6 -45z"/>
<path d="M1832 1737 c-19 -23 -34 -111 -23 -138 8 -20 10 -16 10 29 1 29 8 68
15 87 16 37 15 43 -2 22z"/>
<path d="M1156 1701 c-16 -18 -16 -21 3 -59 21 -42 57 -63 109 -64 60 -2 79
38 40 87 -40 51 -121 70 -152 36z m121 -56 c37 -36 35 -39 -22 -35 -32 2 -75
35 -75 57 0 28 60 14 97 -22z"/>
<path d="M2675 1670 c-16 -4 -46 -15 -65 -23 -34 -16 -34 -16 -7 -17 15 0 27
-4 27 -10 0 -14 -8 -13 -73 10 -63 22 -81 25 -72 10 9 -14 116 -75 145 -83 30
-8 102 2 95 13 -3 5 -15 6 -28 4 -12 -2 -16 -2 -9 2 6 3 10 10 7 15 -4 5 1 6
10 3 11 -5 14 -2 9 12 -4 11 -12 25 -17 32 -18 24 5 27 24 3 10 -13 19 -19 19
-13 0 5 -7 15 -15 22 -8 7 -12 16 -9 21 6 10 1 10 -41 -1z"/>
<path d="M2199 1654 c-6 -8 -17 -14 -24 -14 -8 0 -27 -12 -44 -26 -17 -14 -31
-23 -31 -20 0 8 -86 -87 -98 -109 -8 -16 -10 -6 -8 47 4 103 -8 92 -20 -19 -8
-75 -8 -104 1 -122 12 -23 12 -22 17 16 3 22 17 58 31 80 27 42 101 109 127
115 8 2 18 8 22 13 5 6 8 5 8 -2 0 -7 5 -13 11 -13 6 0 8 9 4 20 -4 11 -3 20
2 19 23 -4 63 2 63 10 0 15 -49 19 -61 5z"/>
<path d="M1034 1621 c7 -11 -10 -51 -26 -62 -6 -4 7 -10 27 -13 40 -8 183 -63
202 -78 8 -7 12 -4 12 9 -1 10 2 28 6 39 5 16 2 23 -14 27 -22 5 -29 -7 -11
-18 16 -10 11 -21 -11 -22 -11 -1 -45 9 -74 23 -30 13 -60 24 -68 24 -8 0 -21
7 -28 16 -11 14 -11 18 5 29 17 13 16 14 -4 25 -15 8 -20 8 -16 1z"/>
<path d="M1948 1588 c-19 -51 -23 -134 -8 -143 6 -3 7 -11 4 -17 -4 -6 -2 -8
3 -5 6 4 8 26 6 51 -3 24 0 67 7 96 15 64 8 75 -12 18z"/>
<path d="M1090 1593 c8 -2 37 -14 63 -24 27 -11 51 -18 53 -16 6 6 -96 47
-115 46 -13 0 -13 -1 -1 -6z"/>
<path d="M1770 1475 c0 -8 1 -16 3 -18 1 -2 -6 -16 -16 -32 l-18 -30 20 24
c12 12 18 27 15 32 -3 5 0 9 5 9 6 0 11 7 11 15 0 8 -4 15 -10 15 -5 0 -10 -7
-10 -15z"/>
<path d="M460 1465 c0 -2 13 -19 29 -37 16 -18 31 -42 34 -53 3 -15 5 -13 6 8
1 19 -9 37 -29 57 -29 29 -40 35 -40 25z"/>
<path d="M1865 1358 c-59 -127 -85 -191 -84 -213 0 -11 8 5 18 35 10 30 41
101 68 158 28 56 47 102 43 102 -4 0 -24 -37 -45 -82z"/>
<path d="M2416 1432 c-3 -5 8 -25 24 -43 32 -37 35 -45 20 -54 -22 -14 -8 -22
26 -15 45 10 55 20 21 20 -28 0 -37 15 -14 23 10 4 10 7 0 18 -11 11 -13 10
-13 -6 -1 -15 -7 -10 -24 18 -29 47 -33 51 -40 39z"/>
<path d="M2709 1348 c-19 -29 -45 -63 -59 -75 -18 -16 -21 -22 -10 -23 9 0 34
28 56 63 51 77 56 87 51 87 -3 0 -20 -24 -38 -52z"/>
<path d="M390 1380 c-24 -6 -22 -11 12 -23 9 -3 19 0 22 8 7 19 -3 23 -34 15z"/>
<path d="M2248 1343 c-9 -27 -20 -63 -23 -80 -6 -31 -5 -32 16 -24 29 10 67
59 54 69 -6 4 -10 13 -11 20 -1 6 -2 23 -2 37 -3 39 -16 30 -34 -22z m33 -39
c5 -6 3 -18 -5 -30 -14 -19 -15 -19 -22 0 -4 12 -3 21 3 23 5 2 9 16 7 31 -2
17 -1 20 2 7 4 -11 10 -25 15 -31z"/>
<path d="M2304 1375 c-4 -8 2 -27 12 -43 10 -15 18 -30 17 -34 -2 -3 4 -9 12
-12 24 -9 28 31 6 56 -12 12 -21 28 -21 35 0 18 -19 16 -26 -2z"/>
<path d="M250 1355 l-35 -13 28 -7 c18 -5 39 -2 59 8 18 9 36 13 42 10 5 -3 6
-1 2 5 -9 15 -51 13 -96 -3z"/>
<path d="M1038 1335 c20 -17 41 -25 63 -24 26 1 28 3 10 6 -13 3 -37 13 -55
24 -44 27 -53 24 -18 -6z"/>
<path d="M696 1308 c-11 -15 -12 -26 -5 -40 7 -14 6 -18 -6 -18 -8 0 -15 -4
-15 -10 0 -5 4 -10 10 -10 5 0 7 -7 4 -15 -4 -10 0 -15 15 -15 21 0 24 -20 7
-48 -4 -7 -6 -16 -3 -19 10 -9 27 8 27 28 0 21 15 26 25 8 4 -6 -3 -21 -15
-34 -17 -18 -27 -22 -40 -15 -10 5 -20 6 -24 3 -3 -3 -6 4 -6 16 0 12 4 20 9
17 5 -3 11 3 14 13 3 12 -1 22 -10 25 -20 8 -33 -2 -26 -19 3 -9 -1 -15 -11
-15 -9 0 -16 5 -16 10 0 15 -27 12 -33 -4 -3 -8 3 -23 13 -34 20 -21 9 -45
-15 -35 -8 2 -22 -8 -31 -24 -10 -15 -31 -41 -47 -56 -15 -15 -33 -40 -39 -55
-5 -15 -12 -108 -13 -207 l-3 -180 29 -47 c17 -25 37 -52 45 -59 17 -14 76
-20 68 -7 -3 4 0 8 5 8 6 0 11 -4 11 -9 0 -6 12 -3 28 5 15 7 36 14 47 14 11
0 27 5 35 10 10 6 -9 9 -60 8 -78 -2 -124 7 -115 22 3 5 -5 10 -17 12 -13 2
-23 10 -23 19 0 9 -7 24 -15 33 -12 15 -12 19 0 26 8 5 18 6 22 4 11 -7 10 11
-3 39 -8 17 -8 31 -1 43 9 16 10 16 21 -4 7 -12 16 -22 22 -22 6 0 -6 19 -25
42 -20 23 -36 46 -37 52 0 6 -2 19 -4 29 -4 22 2 21 50 -8 45 -28 63 -32 45
-10 -7 8 -18 15 -24 15 -20 0 -70 57 -54 63 7 2 10 8 5 12 -4 5 -13 3 -19 -3
-7 -7 -16 -12 -22 -12 -5 0 5 16 24 35 30 31 32 40 7 36 -4 -1 0 13 8 30 9 16
22 28 28 26 16 -5 15 -32 0 -32 -7 0 -13 -3 -13 -7 0 -5 0 -11 0 -15 0 -3 10
3 23 14 12 12 45 31 72 44 28 12 51 23 53 25 7 5 -24 44 -35 44 -7 0 -19 -11
-28 -23 -16 -26 -53 -46 -71 -40 -18 6 62 85 83 81 10 -2 23 2 28 10 15 19 82
24 89 6 3 -8 13 -11 23 -8 14 5 15 4 4 -4 -15 -11 -7 -32 14 -32 7 0 16 -12
20 -27 4 -17 27 -45 56 -68 27 -22 49 -48 49 -58 0 -11 -4 -15 -12 -11 -7 5
-8 3 -3 -6 6 -10 11 -9 21 4 11 16 13 16 23 -1 6 -10 11 -14 11 -10 0 5 7 1
16 -7 8 -9 21 -16 27 -16 7 0 1 9 -12 19 -17 13 -22 25 -18 40 7 28 -1 27 -13
-1 -6 -16 -9 -18 -9 -7 -1 9 -8 20 -17 23 -9 4 -14 9 -11 12 7 7 -23 41 -38
45 -17 4 -35 27 -35 43 0 9 -5 15 -12 13 -17 -3 -38 45 -45 104 -5 40 -13 59
-38 85 -38 39 -48 61 -32 68 9 3 8 5 -1 5 -10 1 -10 6 -2 21 14 27 5 26 -14
-2z"/>
<path d="M210 1290 l-35 -20 30 6 c17 4 37 13 45 20 20 20 1 17 -40 -6z"/>
<path d="M2379 1292 c0 -4 -3 -19 -5 -34 -2 -14 0 -29 5 -32 5 -3 7 2 4 12 -3
12 2 18 16 19 11 1 24 -3 27 -9 5 -7 2 -8 -7 -3 -11 6 -10 4 1 -8 8 -8 26 -18
40 -22 24 -7 24 -6 5 8 -19 14 -18 15 10 11 26 -4 25 -3 -12 16 -24 11 -43 24
-43 29 0 10 -40 22 -41 13z"/>
<path d="M2326 1252 c6 -4 11 -21 10 -39 -1 -24 5 -35 21 -44 13 -7 26 -9 30
-5 4 4 -2 9 -13 12 -15 4 -21 13 -20 32 2 30 -10 52 -28 52 -8 0 -8 -2 0 -8z"/>
<path d="M2260 1223 c0 -10 5 -25 11 -33 8 -12 9 -10 4 8 -7 25 -2 28 18 8 8
-8 19 -11 27 -6 9 6 7 10 -9 15 -11 3 -21 11 -21 16 0 5 -7 9 -15 9 -8 0 -15
-8 -15 -17z"/>
<path d="M343 1222 c-12 -2 -24 -10 -27 -18 -4 -10 3 -14 28 -14 18 0 51 -7
72 -16 32 -13 36 -14 26 -1 -7 8 -26 17 -43 21 -17 3 -28 10 -24 15 7 13 -5
18 -32 13z"/>
<path d="M1089 1186 c-14 -48 -30 -55 -21 -10 4 23 2 26 -12 21 -10 -4 -27 0
-39 8 -34 24 -43 18 -11 -7 16 -12 30 -22 31 -23 6 -3 -22 -65 -28 -65 -4 0
-21 11 -37 25 -17 14 -33 25 -36 25 -4 0 -16 9 -28 20 -12 11 -27 20 -32 20
-6 0 -4 -5 4 -10 13 -9 12 -13 -9 -30 -30 -25 -45 -16 -37 23 6 29 5 30 -8 12
-35 -46 -15 -75 47 -67 22 4 25 7 16 18 -6 8 -8 14 -3 14 5 0 28 -20 52 -45
25 -26 52 -45 65 -45 12 -1 38 -10 57 -21 l35 -20 -30 5 c-16 2 -39 8 -50 11
-18 6 -17 4 4 -14 33 -30 75 -27 100 7 13 17 21 22 21 12 1 -14 29 26 30 43 0
13 -28 7 -34 -8 -3 -8 -12 -15 -21 -15 -8 0 -15 -4 -15 -10 0 -5 -18 0 -40 11
-39 21 -50 40 -13 23 22 -10 73 -12 73 -3 0 4 -7 12 -15 19 -26 22 -16 31 16
15 17 -9 38 -14 47 -12 12 3 4 10 -25 23 -41 18 -42 20 -36 57 8 51 -2 47 -18
-7z"/>
<path d="M550 1098 c-12 -24 -19 -38 -14 -33 5 6 22 25 38 43 21 22 25 32 15
32 -9 0 -26 -19 -39 -42z"/>
<path d="M1286 1111 c-4 -6 5 -13 21 -17 52 -11 54 -12 47 -40 -5 -18 -3 -25
3 -21 6 4 16 0 23 -8 7 -8 20 -15 30 -15 27 0 30 -10 14 -42 -8 -15 -14 -34
-13 -41 4 -35 -2 -49 -18 -42 -14 5 -15 3 -6 -6 17 -17 28 -5 51 58 31 87 36
120 18 120 -8 0 -12 -6 -9 -14 4 -10 -3 -12 -26 -10 -30 4 -69 27 -45 27 6 0
16 11 22 25 10 23 9 25 -11 25 -12 1 -38 3 -58 6 -21 3 -40 1 -43 -5z"/>
<path d="M246 1087 c-22 -21 -24 -26 -10 -31 24 -9 42 -6 19 4 -20 9 -20 9 0
9 34 2 48 16 31 30 -11 9 -19 7 -40 -12z"/>
<path d="M1757 1103 c-4 -3 -7 -17 -7 -30 0 -13 -8 -36 -17 -51 -17 -26 -17
-27 1 -12 18 14 46 68 46 90 0 11 -13 13 -23 3z"/>
<path d="M890 1060 c18 -23 49 -50 69 -61 l36 -20 -32 5 c-23 4 -33 1 -37 -11
-5 -12 -3 -13 6 -6 8 6 22 7 33 2 29 -11 95 -11 95 1 0 5 -3 9 -7 8 -20 -5
-87 36 -127 76 -55 57 -79 60 -36 6z"/>
<path d="M330 1060 c-12 -8 33 -30 58 -29 12 0 13 2 3 6 -10 4 -10 7 -1 13 7
5 0 9 -19 12 -17 2 -35 2 -41 -2z"/>
<path d="M1692 1058 c-7 -7 -12 -18 -12 -25 0 -8 -8 -17 -17 -20 -10 -4 -30
-16 -45 -27 -23 -16 -28 -27 -28 -65 0 -41 13 -52 15 -13 4 55 6 60 28 66 33
8 65 38 72 69 8 30 5 33 -13 15z"/>
<path d="M1107 1012 c-2 -4 -3 -17 -2 -29 1 -13 -1 -23 -5 -23 -4 0 -12 -11
-20 -24 -12 -23 -14 -24 -37 -9 -31 21 -40 11 -13 -15 18 -17 19 -20 5 -26 -9
-3 -13 -2 -10 3 8 13 -35 25 -47 13 -6 -6 13 -16 51 -28 34 -11 61 -24 61 -30
0 -7 7 -15 15 -18 17 -6 35 28 35 66 0 16 3 18 14 9 18 -15 105 -61 116 -61 5
0 12 9 15 21 4 11 9 18 12 15 3 -2 -2 -26 -11 -53 -16 -48 -16 -49 -59 -47
-23 1 -30 0 -16 -2 21 -4 28 -14 39 -57 15 -60 42 -86 88 -87 28 0 35 5 43 30
6 17 14 30 18 30 4 0 13 12 19 26 7 14 8 23 2 19 -15 -9 -12 4 5 21 8 9 15 29
15 45 0 17 4 28 10 24 6 -4 7 6 3 26 -5 26 -3 31 8 24 11 -6 12 -5 2 5 -11 12
-15 11 -27 -5 -8 -11 -12 -23 -10 -26 3 -5 -107 28 -124 37 -1 0 0 9 4 18 5
13 9 14 20 5 18 -14 18 0 0 23 -7 10 -16 15 -19 11 -4 -3 -7 -1 -7 5 0 6 -13
13 -30 17 -16 4 -34 13 -38 21 -7 12 -11 10 -20 -10 -8 -19 -18 -25 -37 -24
-16 2 -24 7 -21 15 3 7 1 13 -4 13 -6 0 -10 6 -10 14 0 15 -27 30 -33 18z m20
-92 c0 -28 -4 -45 -8 -38 -6 9 -11 9 -22 -1 -11 -8 -17 -9 -22 -1 -4 6 -1 9 7
8 8 -2 13 7 13 23 0 21 19 59 30 59 1 0 2 -23 2 -50z m162 -24 c-5 -17 -9 -32
-9 -33 0 -7 -105 48 -108 56 -5 16 47 25 74 12 34 -15 41 -14 18 4 -18 14 -17
15 7 4 24 -10 26 -14 18 -43z m86 -62 c35 -9 37 -27 10 -88 -30 -68 -56 -85
-85 -56 -23 23 -25 57 -5 84 8 11 15 29 15 41 0 27 10 37 28 30 8 -3 24 -8 37
-11z"/>
<path d="M1379 973 c-6 -17 -6 -30 0 -36 7 -7 14 -1 21 17 13 34 13 46 0 46
-6 0 -15 -12 -21 -27z"/>
<path d="M1506 993 c-12 -12 -6 -25 9 -19 10 4 15 -1 15 -14 0 -26 15 -26 17
0 2 20 -29 45 -41 33z"/>
<path d="M1654 932 c-7 -4 -14 -33 -15 -65 -3 -45 -1 -54 7 -42 11 14 12 14
18 -1 9 -24 7 -34 -8 -34 -13 0 -26 -20 -26 -41 0 -17 39 -9 50 10 16 30 12
110 -5 128 -9 9 -13 23 -10 34 7 21 6 22 -11 11z"/>
<path d="M548 913 c-15 -17 -13 -19 33 -40 42 -18 49 -19 49 -6 0 12 9 9 37
-13 20 -15 51 -29 68 -30 27 -2 28 -1 11 10 -11 6 -42 31 -70 56 -27 25 -46
38 -41 30 5 -8 20 -23 33 -34 30 -24 20 -34 -12 -12 -15 9 -27 12 -31 6 -3 -5
-20 -3 -40 7 -19 9 -32 20 -29 25 8 12 21 10 39 -9 16 -16 17 -15 13 3 -4 25
-40 29 -60 7z"/>
<path d="M713 897 c-1 -12 1 -17 5 -10 5 8 12 8 24 -1 10 -7 14 -16 10 -20 -4
-5 0 -7 8 -5 8 2 29 -5 47 -14 18 -9 38 -17 45 -17 7 0 -14 14 -47 30 -32 17
-66 37 -75 45 -14 13 -16 12 -17 -8z"/>
<path d="M1160 841 c0 -15 43 -42 52 -33 15 15 -3 42 -28 42 -13 0 -24 -4 -24
-9z"/>
<path d="M1499 833 c0 -11 -3 -13 -6 -5 -6 15 -23 6 -23 -13 0 -9 6 -12 15 -9
8 3 22 -1 30 -10 27 -26 65 -15 65 18 0 2 -13 2 -30 1 -19 -1 -30 3 -30 11 0
20 -20 27 -21 7z"/>
<path d="M785 810 c16 -8 13 -9 -14 -5 -41 6 -37 -2 8 -15 19 -5 31 -5 31 1 0
5 10 9 23 8 21 0 21 -1 2 -9 -25 -11 -28 -10 84 -15 52 -3 91 -2 87 2 -10 10
-34 15 -93 18 -28 2 -55 5 -60 8 -4 2 -26 7 -48 10 -30 5 -35 4 -20 -3z"/>
<path d="M1059 783 c-6 -12 -4 -31 4 -47 6 -12 5 -16 -1 -12 -19 12 -45 -181
-39 -294 7 -138 30 -210 74 -230 18 -8 33 -20 33 -27 0 -19 21 -27 31 -12 5 8
9 9 9 3 0 -5 20 -11 44 -13 39 -2 47 2 66 29 22 31 20 53 -4 44 -8 -3 -17 -16
-20 -29 -4 -14 -16 -25 -32 -29 -37 -10 -40 -1 -12 26 28 27 49 70 23 48 -12
-10 -24 -9 -61 4 l-46 16 4 -30 c4 -25 2 -28 -14 -19 -10 5 -18 21 -18 35 0
14 4 23 8 20 5 -3 9 1 9 9 0 8 -5 15 -12 15 -6 0 -21 14 -34 31 l-23 31 25
-17 c17 -11 27 -13 32 -6 6 10 -1 15 -17 12 -4 0 -5 6 -2 14 5 13 10 13 35 -1
16 -8 29 -10 29 -5 0 5 -12 12 -26 15 -17 5 -24 12 -20 21 3 9 0 15 -8 15 -30
0 -67 74 -51 100 8 13 44 -11 38 -25 -2 -7 2 -15 11 -18 8 -3 17 0 20 8 3 10
0 12 -11 8 -11 -4 -14 -2 -9 5 4 7 -7 25 -26 43 l-33 31 29 -7 c25 -5 28 -4
21 12 -15 34 -16 96 -3 90 44 -16 60 -18 54 -8 -4 6 -14 11 -21 11 -8 0 -21
13 -30 29 -27 54 15 48 63 -8 8 -10 12 -11 12 -3 0 7 4 12 10 12 5 0 7 -7 4
-15 -4 -8 -1 -15 6 -15 6 0 8 5 4 12 -5 8 -2 9 10 5 10 -4 20 -7 24 -7 3 0 -3
-7 -14 -15 -18 -15 -18 -15 0 -8 13 4 17 3 12 -5 -5 -8 -2 -10 9 -5 13 5 14 7
3 14 -10 7 -10 9 2 9 8 1 2 8 -15 17 -16 9 -50 32 -74 52 -24 20 -46 35 -48
34 -1 -2 -3 -1 -3 2 0 27 1 29 10 15 5 -8 10 -11 10 -6 0 5 7 3 15 -4 9 -7 18
-11 21 -8 8 9 -43 37 -65 35 -11 -1 -22 -3 -22 -4z m125 -559 c8 -3 12 -12 10
-19 -7 -16 -44 -7 -44 11 0 15 10 17 34 8z"/>
<path d="M1483 773 c-17 -6 -16 -30 0 -36 20 -8 41 9 34 27 -7 16 -13 18 -34
9z"/>
<path d="M790 750 c0 -7 -7 -10 -15 -6 -8 3 -15 1 -15 -4 0 -9 14 -12 36 -9 4
0 11 -5 15 -13 7 -11 9 -11 9 0 0 7 -7 20 -15 28 -10 10 -15 11 -15 4z"/>
<path d="M925 749 c-16 -5 -38 -6 -47 -3 -14 4 -18 0 -18 -18 0 -13 4 -18 8
-13 7 10 24 14 74 18 14 1 24 5 22 9 -2 3 2 9 8 11 22 9 -15 6 -47 -4z"/>
<path d="M1156 741 c-7 -11 55 -51 79 -51 14 0 15 3 5 15 -7 9 -15 13 -17 11
-3 -2 -13 4 -24 15 -21 21 -35 24 -43 10z"/>
<path d="M1603 666 c-30 -87 -127 -307 -174 -396 -47 -90 -101 -130 -189 -141
l-55 -6 49 -2 c39 -1 59 6 106 34 51 31 63 45 99 115 37 70 90 188 167 374 14
32 24 64 22 71 -2 7 -13 -15 -25 -49z"/>
<path d="M890 699 c-17 -5 -19 -7 -7 -8 16 -1 16 -3 5 -15 -8 -7 -26 -12 -41
-11 -15 2 -25 -1 -21 -6 3 -5 -7 -9 -22 -9 -15 0 -24 -3 -20 -7 4 -4 22 -6 41
-5 18 1 36 -2 40 -8 4 -6 -7 -10 -27 -10 -18 -1 -50 -3 -70 -6 -21 -3 -38 -2
-38 3 0 4 -17 9 -37 10 -20 1 -40 8 -44 15 -5 7 -9 10 -9 5 0 -4 -13 -1 -30 8
-16 9 -30 13 -30 10 0 -12 82 -44 155 -60 44 -10 85 -22 91 -26 14 -11 51 -6
65 8 8 8 2 9 -25 3 -29 -6 -36 -5 -36 7 0 8 5 11 10 8 6 -4 23 -4 38 0 20 4
32 18 49 55 23 53 21 55 -37 39z"/>
<path d="M705 656 c17 -7 38 -11 48 -8 32 8 17 17 -31 19 -46 2 -47 2 -17 -11z"/>
<path d="M1480 654 c-25 -7 -56 -14 -70 -15 -23 0 -23 -1 -5 -9 27 -12 57 -12
50 -1 -3 6 10 13 30 17 19 3 38 10 41 15 3 5 4 9 2 8 -2 0 -23 -7 -48 -15z"/>
<path d="M1410 601 c-48 -5 -51 -7 -27 -14 15 -4 45 -3 67 3 38 10 55 22 28
18 -7 -1 -38 -4 -68 -7z"/>
<path d="M673 583 c4 -6 -3 -8 -18 -5 -15 2 -25 0 -25 -7 0 -7 -9 -9 -26 -5
-19 5 -25 4 -20 -5 4 -6 11 -9 16 -6 5 3 11 1 15 -5 9 -14 45 -12 46 3 0 6 4
3 9 -8 5 -11 9 -14 9 -7 1 6 6 12 12 12 5 0 8 -4 4 -9 -3 -6 13 -4 36 2 50 15
62 34 22 34 -15 -1 -41 3 -57 8 -19 5 -27 4 -23 -2z"/>
<path d="M1295 576 c20 -17 20 -17 -2 -13 -13 3 -25 1 -29 -4 -5 -9 143 -5
152 4 2 2 -20 7 -50 11 -30 3 -63 9 -73 12 -16 6 -16 5 2 -10z"/>
<path d="M819 527 c-19 -17 -44 -37 -55 -44 -10 -6 -14 -12 -7 -12 6 -1 33 19
60 44 26 24 46 44 43 44 -3 0 -21 -14 -41 -32z"/>
<path d="M1350 520 c8 -5 31 -10 50 -10 26 0 31 3 20 10 -8 5 -31 10 -50 10
-26 0 -31 -3 -20 -10z"/>
<path d="M1305 476 c35 -17 85 -21 85 -6 0 6 -11 10 -24 10 -13 0 -39 2 -57 5
l-34 5 30 -14z"/>
<path d="M685 464 l-40 -14 39 5 c22 2 44 9 50 15 13 13 0 12 -49 -6z"/>
<path d="M1120 440 c0 -5 5 -10 11 -10 5 0 7 -5 3 -12 -4 -7 -3 -8 4 -4 6 4
32 -3 57 -14 25 -11 60 -23 78 -25 l32 -5 -30 14 c-16 9 -36 15 -43 16 -7 0
-35 11 -62 25 -28 14 -50 21 -50 15z"/>
<path d="M1252 431 c15 -24 39 -31 98 -30 l45 1 -35 10 c-19 5 -47 12 -63 15
-15 3 -30 9 -33 14 -3 5 -9 9 -15 9 -5 0 -4 -9 3 -19z"/>
<path d="M1165 340 c15 -25 139 -38 195 -20 17 5 -3 8 -60 8 -47 0 -98 5 -113
11 -16 6 -26 7 -22 1z"/>
<path d="M1176 309 c3 -5 0 -9 -6 -9 -22 0 -4 -23 21 -27 65 -11 143 -13 129
-4 -13 9 -13 10 0 15 42 13 40 15 -10 10 -36 -4 -70 -1 -97 9 -24 8 -40 11
-37 6z"/>
</g>
</svg>
